# xmcd
#
# Track frame offsets:
#	150
#	11030
#	28880
#	42210
#	57680
#	70305
#	85957
#	99760
#	111822
#	125580
#	141892
#	156112
#	166875
#
# Disc length: 2454 seconds
#
# Revision: 0
# Processed by: cddbd v1.5.1PL0 Copyright (c) Steve Scherf et al.
# Submitted via: EasyCDDAExtractor 8.1.4.1
#
DISCID=b009940d
DTITLE=Francois and Elizabeth - Francois and Elizabeth in Duet
DYEAR=1994
DGENRE=Oldies
TTITLE0=Welkom In My Lewe
TTITLE1=Bly By My
TTITLE2=Somer In Singapoer
TTITLE3=Laaste Dans
TTITLE4=Heidekleure
TTITLE5=Um Twana Wa Afrika
TTITLE6=Daarom
TTITLE7=As 'n Ster Verskiet
TTITLE8=Vir Jou
TTITLE9=Serenade
TTITLE10=Bosveldstilte
TTITLE11=Musiek Sal Vir Altyd Bly
TTITLE12=Green Green Keurspel
EXTD=
EXTT0=
EXTT1=
EXTT2=
EXTT3=
EXTT4=
EXTT5=
EXTT6=
EXTT7=
EXTT8=
EXTT9=
EXTT10=
EXTT11=
EXTT12=
PLAYORDER=
